<svg id="Layer_3" enable-background="new 0 0 64 64" height="512" viewBox="0 0 64 64" width="512" xmlns="http://www.w3.org/2000/svg"><g><path d="m62 7h-16v-1c0-.552-.447-1-1-1v-2h-2v2h-1v-3c0-.552-.447-1-1-1h-6c-.553 0-1 .448-1 1v3h-1v-2h-2v2c-.553 0-1 .448-1 1v1h-2v-1c0-.552-.447-1-1-1v-3c0-.552-.447-1-1-1h-8c-.553 0-1 .448-1 1v3c-.553 0-1 .448-1 1v1h-14c-.553 0-1 .448-1 1v54c0 .553.447 1 1 1h60c.553 0 1-.447 1-1v-54c0-.552-.447-1-1-1zm-25 7v-7h2v7zm-2 0h-3v-1h2v-2h-2v-4h3zm-3 2h12v2h-12zm12-2h-3v-7h3v4h-2v2h2zm-8-11h4v2h-4zm-15 6v6h-3v-8h8v8h-3v-6zm4-4h-2v-2h2zm-6-2h2v2h-2zm42 58h-58v-52h13v7c0 .552.447 1 1 1h10c.553 0 1-.448 1-1v-7h2v10c0 .552.447 1 1 1h14c.553 0 1-.448 1-1v-10h15z"/><path d="m55 20h4c.553 0 1-.448 1-1v-8c0-.552-.447-1-1-1h-4c-.553 0-1 .448-1 1v8c0 .552.447 1 1 1zm1-8h2v6h-2z"/><path d="m48 20h4c.553 0 1-.448 1-1v-8c0-.552-.447-1-1-1h-4c-.553 0-1 .448-1 1v8c0 .552.447 1 1 1zm1-8h2v6h-2z"/><path d="m5.5 13c.827 0 1.5-.673 1.5-1.5s-.673-1.5-1.5-1.5-1.5.673-1.5 1.5.673 1.5 1.5 1.5zm0-2c.275 0 .5.224.5.5s-.225.5-.5.5-.5-.224-.5-.5.225-.5.5-.5z"/><path d="m17.5 22c.827 0 1.5-.673 1.5-1.5s-.673-1.5-1.5-1.5-1.5.673-1.5 1.5.673 1.5 1.5 1.5zm0-2c.275 0 .5.224.5.5s-.225.5-.5.5-.5-.224-.5-.5.225-.5.5-.5z"/><path d="m21.5 22c.827 0 1.5-.673 1.5-1.5s-.673-1.5-1.5-1.5-1.5.673-1.5 1.5.673 1.5 1.5 1.5zm0-2c.275 0 .5.224.5.5s-.225.5-.5.5-.5-.224-.5-.5.225-.5.5-.5z"/><path d="m49.5 26c.827 0 1.5-.673 1.5-1.5s-.673-1.5-1.5-1.5-1.5.673-1.5 1.5.673 1.5 1.5 1.5zm0-2c.275 0 .5.224.5.5s-.225.5-.5.5-.5-.224-.5-.5.225-.5.5-.5z"/><path d="m45.5 23c-.827 0-1.5.673-1.5 1.5s.673 1.5 1.5 1.5 1.5-.673 1.5-1.5-.673-1.5-1.5-1.5zm0 2c-.275 0-.5-.224-.5-.5s.225-.5.5-.5.5.224.5.5-.225.5-.5.5z"/><path d="m31.5 24c.827 0 1.5-.673 1.5-1.5s-.673-1.5-1.5-1.5-1.5.673-1.5 1.5.673 1.5 1.5 1.5zm0-2c.275 0 .5.224.5.5s-.225.5-.5.5-.5-.224-.5-.5.225-.5.5-.5z"/><path d="m31.5 28c.827 0 1.5-.673 1.5-1.5s-.673-1.5-1.5-1.5-1.5.673-1.5 1.5.673 1.5 1.5 1.5zm0-2c.275 0 .5.224.5.5s-.225.5-.5.5-.5-.224-.5-.5.225-.5.5-.5z"/><path d="m17.5 26c.827 0 1.5-.673 1.5-1.5s-.673-1.5-1.5-1.5-1.5.673-1.5 1.5.673 1.5 1.5 1.5zm0-2c.275 0 .5.224.5.5s-.225.5-.5.5-.5-.224-.5-.5.225-.5.5-.5z"/><path d="m21.5 26c.827 0 1.5-.673 1.5-1.5s-.673-1.5-1.5-1.5-1.5.673-1.5 1.5.673 1.5 1.5 1.5zm0-2c.275 0 .5.224.5.5s-.225.5-.5.5-.5-.224-.5-.5.225-.5.5-.5z"/><path d="m5.5 57c-.827 0-1.5.673-1.5 1.5s.673 1.5 1.5 1.5 1.5-.673 1.5-1.5-.673-1.5-1.5-1.5zm0 2c-.275 0-.5-.225-.5-.5s.225-.5.5-.5.5.225.5.5-.225.5-.5.5z"/><path d="m58.5 57c-.827 0-1.5.673-1.5 1.5s.673 1.5 1.5 1.5 1.5-.673 1.5-1.5-.673-1.5-1.5-1.5zm0 2c-.275 0-.5-.225-.5-.5s.225-.5.5-.5.5.225.5.5-.225.5-.5.5z"/><path d="m58 51.5c0-.827-.673-1.5-1.5-1.5s-1.5.673-1.5 1.5.673 1.5 1.5 1.5 1.5-.673 1.5-1.5zm-1.5.5c-.275 0-.5-.225-.5-.5s.225-.5.5-.5.5.225.5.5-.225.5-.5.5z"/><path d="m17 53h3c.553 0 1-.447 1-1v-24c0-.552-.447-1-1-1h-3c-.553 0-1 .448-1 1v24c0 .553.447 1 1 1zm1-24h1v22h-1z"/><path d="m14 19h-3c-.553 0-1 .448-1 1v24c0 .553.447 1 1 1h3c.553 0 1-.447 1-1v-24c0-.552-.447-1-1-1zm-1 24h-1v-22h1z"/><path d="m5 45h3c.553 0 1-.447 1-1v-24c0-.552-.447-1-1-1h-3c-.553 0-1 .448-1 1v24c0 .553.447 1 1 1zm1-24h1v22h-1z"/><path d="m53 49h-18c-.553 0-1 .447-1 1v3c0 .553.447 1 1 1h18c.553 0 1-.447 1-1v-3c0-.553-.447-1-1-1zm-1 3h-16v-1h16z"/><path d="m53 55h-18c-.553 0-1 .447-1 1v3c0 .553.447 1 1 1h18c.553 0 1-.447 1-1v-3c0-.553-.447-1-1-1zm-1 3h-16v-1h16z"/><path d="m28 53c.553 0 1-.447 1-1v-28c0-.552-.447-1-1-1h-3c-.553 0-1 .448-1 1v28c0 .553.447 1 1 1zm-2-28h1v26h-1z"/><path d="m49 27c-.553 0-1 .448-1 1v4c0 .552.447 1 1 1h4c.553 0 1-.448 1-1v-4c0-.552-.447-1-1-1zm3 4h-2v-2h2z"/><path d="m42 33h4c.553 0 1-.448 1-1v-4c0-.552-.447-1-1-1h-4c-.553 0-1 .448-1 1v4c0 .552.447 1 1 1zm1-4h2v2h-2z"/><path d="m35 33h4c.553 0 1-.448 1-1v-4c0-.552-.447-1-1-1h-4c-.553 0-1 .448-1 1v4c0 .552.447 1 1 1zm1-4h2v2h-2z"/><path d="m13 46h-8c-.553 0-1 .447-1 1v8c0 .553.447 1 1 1h8c.553 0 1-.447 1-1v-8c0-.553-.447-1-1-1zm-1 8h-6v-6h6z"/><path d="m8 53h2c.553 0 1-.447 1-1v-2c0-.553-.447-1-1-1h-2c-.553 0-1 .447-1 1v2c0 .553.447 1 1 1z"/><path d="m16 54h8v2h-8z"/><path d="m16 57h8v2h-8z"/><path d="m25 57h2v2h-2z"/><path d="m28 57h2v2h-2z"/><path d="m31 57h2v2h-2z"/><path d="m58 39h2v2h-2z"/><path d="m58 42h2v2h-2z"/><path d="m58 45h2v2h-2z"/><path d="m55 25h5v2h-5z"/><path d="m55 28h5v2h-5z"/><path d="m55 31h5v2h-5z"/><path d="m13 11h2v6h-2z"/><path d="m10 11h2v6h-2z"/><path d="m7 15h2v2h-2z"/><path d="m36 36c0-1.654-1.346-3-3-3s-3 1.346-3 3 1.346 3 3 3 3-1.346 3-3zm-3 1c-.552 0-1-.448-1-1s.448-1 1-1 1 .448 1 1-.448 1-1 1z"/><path d="m39 36v2c-.553 0-1 .447-1 1v.22l-3.242.811c-.446.111-.758.51-.758.969v4c0 .459.312.858.758.97l3.242.81v.22c0 .553.447 1 1 1h10c.553 0 1-.447 1-1v-8-3h-2v2h-1v-2h-2v2h-1v-2h-2v2h-1v-2zm-3 8.219v-2.438l2-.501v3.439zm12 1.781h-8v-2h6v-2h-6v-2h8z"/><path d="m52 42h4c.553 0 1-.447 1-1v-3c0-.553-.447-1-1-1h-4c-.553 0-1 .447-1 1v3c0 .553.447 1 1 1zm1-3h2v1h-2z"/><path d="m51 47c0 .553.447 1 1 1h4c.553 0 1-.447 1-1v-3c0-.553-.447-1-1-1h-4c-.553 0-1 .447-1 1zm2-2h2v1h-2z"/></g></svg>